<svg width="32" height="33" viewBox="0 0 32 33" fill="none" xmlns="http://www.w3.org/2000/svg">
<path d="M22 2.896H10C9.20435 2.896 8.44129 3.21207 7.87868 3.77468C7.31607 4.33729 7 5.10035 7 5.896V27.896C7 28.6916 7.31607 29.4547 7.87868 30.0173C8.44129 30.5799 9.20435 30.896 10 30.896H22C22.7956 30.896 23.5587 30.5799 24.1213 30.0173C24.6839 29.4547 25 28.6916 25 27.896V5.896C25 5.10035 24.6839 4.33729 24.1213 3.77468C23.5587 3.21207 22.7956 2.896 22 2.896ZM9 8.896H23V24.896H9V8.896ZM10 4.896H22C22.2652 4.896 22.5196 5.00135 22.7071 5.18889C22.8946 5.37643 23 5.63078 23 5.896V6.896H9V5.896C9 5.63078 9.10536 5.37643 9.29289 5.18889C9.48043 5.00135 9.73478 4.896 10 4.896ZM22 28.896H10C9.73478 28.896 9.48043 28.7906 9.29289 28.6031C9.10536 28.4156 9 28.1612 9 27.896V26.896H23V27.896C23 28.1612 22.8946 28.4156 22.7071 28.6031C22.5196 28.7906 22.2652 28.896 22 28.896Z" fill="#00ADB5"/>
</svg>
