<svg width="32" height="33" viewBox="0 0 32 33" fill="none" xmlns="http://www.w3.org/2000/svg">
<path d="M28 6.896H4C3.73478 6.896 3.48043 7.00135 3.29289 7.18889C3.10536 7.37643 3 7.63078 3 7.896V24.896C3 25.4264 3.21071 25.9351 3.58579 26.3102C3.96086 26.6853 4.46957 26.896 5 26.896H27C27.5304 26.896 28.0391 26.6853 28.4142 26.3102C28.7893 25.9351 29 25.4264 29 24.896V7.896C29 7.63078 28.8946 7.37643 28.7071 7.18889C28.5196 7.00135 28.2652 6.896 28 6.896ZM16 17.5397L6.57125 8.896H25.4287L16 17.5397ZM12.3387 16.896L5 23.6222V10.1697L12.3387 16.896ZM13.8188 18.2522L15.3188 19.6335C15.5032 19.8029 15.7446 19.8968 15.995 19.8968C16.2454 19.8968 16.4868 19.8029 16.6712 19.6335L18.1712 18.2522L25.4212 24.896H6.57125L13.8188 18.2522ZM19.6612 16.896L27 10.1685V23.6235L19.6612 16.896Z" fill="#00ADB5"/>
</svg>
