<svg width="32" height="33" viewBox="0 0 32 33" fill="none" xmlns="http://www.w3.org/2000/svg">
<path d="M16 8.896C15.0111 8.896 14.0444 9.18924 13.2221 9.73865C12.3999 10.2881 11.759 11.0689 11.3806 11.9826C11.0022 12.8962 10.9031 13.9015 11.0961 14.8714C11.289 15.8414 11.7652 16.7323 12.4645 17.4315C13.1637 18.1308 14.0546 18.607 15.0245 18.7999C15.9945 18.9928 16.9998 18.8938 17.9134 18.5154C18.827 18.137 19.6079 17.4961 20.1573 16.6738C20.7068 15.8516 21 14.8849 21 13.896C21 12.5699 20.4732 11.2981 19.5355 10.3605C18.5979 9.42278 17.3261 8.896 16 8.896ZM16 16.896C15.4067 16.896 14.8266 16.72 14.3333 16.3904C13.8399 16.0608 13.4554 15.5922 13.2284 15.044C13.0013 14.4959 12.9419 13.8927 13.0576 13.3107C13.1734 12.7288 13.4591 12.1942 13.8787 11.7747C14.2982 11.3551 14.8328 11.0694 15.4147 10.9536C15.9967 10.8379 16.5999 10.8973 17.1481 11.1244C17.6962 11.3514 18.1648 11.7359 18.4944 12.2293C18.8241 12.7226 19 13.3027 19 13.896C19 14.6916 18.6839 15.4547 18.1213 16.0173C17.5587 16.5799 16.7956 16.896 16 16.896ZM16 2.896C13.0836 2.8993 10.2877 4.05929 8.22548 6.12148C6.1633 8.18366 5.00331 10.9796 5 13.896C5 17.821 6.81375 21.981 10.25 25.9272C11.794 27.7105 13.5318 29.3162 15.4312 30.7147C15.5994 30.8325 15.7997 30.8957 16.005 30.8957C16.2103 30.8957 16.4106 30.8325 16.5788 30.7147C18.4747 29.3156 20.2091 27.7099 21.75 25.9272C25.1812 21.981 27 17.821 27 13.896C26.9967 10.9796 25.8367 8.18366 23.7745 6.12148C21.7123 4.05929 18.9164 2.8993 16 2.896ZM16 28.646C13.9338 27.021 7 21.0522 7 13.896C7 11.509 7.94821 9.21986 9.63604 7.53203C11.3239 5.84421 13.6131 4.896 16 4.896C18.3869 4.896 20.6761 5.84421 22.364 7.53203C24.0518 9.21986 25 11.509 25 13.896C25 21.0497 18.0662 27.021 16 28.646Z" fill="#00ADB5"/>
</svg>
