<svg width="41" height="31" viewBox="0 0 41 31" fill="none" xmlns="http://www.w3.org/2000/svg">
<path d="M30.955 18.4736C31.4003 18.4736 31.8277 18.4057 32.2531 18.3438C32.1153 18.8071 31.9735 19.2784 31.7458 19.7018C31.5181 20.3169 31.1627 20.8501 30.8092 21.3873C30.5136 21.9684 29.9924 22.3618 29.609 22.8591C29.2075 23.3424 28.6603 23.6639 28.227 24.0653C27.8016 24.4847 27.2444 24.6944 26.8011 24.99C26.3378 25.2556 25.9344 25.5491 25.503 25.6889L24.4266 26.1323L23.48 26.5257L24.4486 30.396L25.6408 30.1084C26.0222 30.0126 26.4876 29.9007 27.0168 29.7669C27.558 29.6671 28.1351 29.3935 28.7782 29.1438C29.4132 28.8603 30.1482 28.6685 30.8311 28.2132C31.5181 27.7779 32.311 27.4144 33.0099 26.8313C33.6869 26.2301 34.5037 25.7089 35.1068 24.944C35.7659 24.2291 36.4169 23.4782 36.9222 22.6235C37.5073 21.8087 37.9047 20.914 38.3241 20.0293C38.7035 19.1446 39.0091 18.2399 39.2587 17.3612C39.732 15.5998 39.9437 13.9263 40.0256 12.4944C40.0935 11.0605 40.0536 9.86825 39.9697 9.00552C39.9397 8.59812 39.8838 8.20271 39.8439 7.92911L39.7939 7.59361L39.742 7.60559C39.3868 5.94637 38.5691 4.42162 37.3836 3.20771C36.198 1.9938 34.693 1.14033 33.0426 0.746048C31.3922 0.351763 29.664 0.432766 28.0577 0.979687C26.4515 1.52661 25.0329 2.5171 23.9661 3.83658C22.8992 5.15606 22.2277 6.75061 22.0293 8.43577C21.8308 10.1209 22.1135 11.8279 22.8447 13.3591C23.5758 14.8903 24.7255 16.1832 26.1607 17.0883C27.596 17.9934 29.2582 18.4737 30.955 18.4736ZM8.98735 18.4736C9.4327 18.4736 9.86007 18.4057 10.2854 18.3438C10.1476 18.8071 10.0059 19.2784 9.77819 19.7018C9.55052 20.3169 9.19505 20.8501 8.84157 21.3873C8.546 21.9684 8.02477 22.3618 7.64134 22.8591C7.23993 23.3424 6.69274 23.6639 6.25938 24.0653C5.834 24.4847 5.27682 24.6944 4.83348 24.99C4.37016 25.2556 3.96676 25.5491 3.53539 25.6889L2.45898 26.1323L1.51237 26.5257L2.48095 30.396L3.67319 30.1084C4.05463 30.0126 4.51994 29.9007 5.04916 29.7669C5.59036 29.6671 6.16751 29.3935 6.81056 29.1438C7.44363 28.8583 8.18054 28.6685 8.86353 28.2112C9.55052 27.7759 10.3434 27.4124 11.0423 26.8293C11.7193 26.2281 12.5361 25.7069 13.1392 24.944C13.7983 24.2291 14.4493 23.4782 14.9546 22.6235C15.5397 21.8087 15.9371 20.914 16.3565 20.0293C16.7359 19.1446 17.0415 18.2399 17.2911 17.3612C17.7644 15.5998 17.9761 13.9263 18.058 12.4944C18.1259 11.0605 18.0859 9.86825 18.0021 9.00552C17.9721 8.59812 17.9162 8.20271 17.8762 7.92911L17.8263 7.59361L17.7744 7.60559C17.4192 5.94637 16.6015 4.42162 15.4159 3.20771C14.2304 1.9938 12.7254 1.14033 11.075 0.746048C9.42463 0.351763 7.69637 0.432766 6.09012 0.979687C4.48387 1.52661 3.06528 2.5171 1.99844 3.83658C0.93161 5.15606 0.260124 6.75061 0.061676 8.43577C-0.136772 10.1209 0.145916 11.8279 0.877045 13.3591C1.60817 14.8903 2.75786 16.1832 4.19312 17.0883C5.62838 17.9934 7.29055 18.4737 8.98735 18.4736Z" fill="#393E46"/>
</svg>
